<?xml version="1.0" encoding="utf-8"?>
<!-- Svg Vector Icons : http://www.onlinewebfonts.com/icon -->
<!DOCTYPE svg PUBLIC "-//W3C//DTD SVG 1.1//EN" "http://www.w3.org/Graphics/SVG/1.1/DTD/svg11.dtd">
<svg version="1.1" xmlns="http://www.w3.org/2000/svg" xmlns:xlink="http://www.w3.org/1999/xlink" x="0px" y="0px" viewBox="0 0 1000 1000" enable-background="new 0 0 1000 1000" xml:space="preserve">
<metadata> Svg Vector Icons : http://www.onlinewebfonts.com/icon </metadata>
<g><g transform="translate(0.000000,511.000000) scale(0.100000,-0.100000)"><path d="M4311.7,3620.2c-137-61.4-194.3-171.8-194.3-368.2c0-165.7,43-304.8,167.7-544.1c100.2-192.3,102.3-198.4,71.6-265.9c-16.4-38.9-47.1-87.9-67.5-106.4c-126.8-110.4-505.2-227-963.4-294.5c-239.3-34.8-251.6-34.8-290.4,0c-63.4,57.3-67.5,126.8-22.5,390.7c49.1,292.5,51.1,378.4,10.2,513.4c-79.8,270-357.9,378.4-621.8,245.4c-235.2-120.7-431.6-409.1-447.9-656.6c-14.3-218.9,47-288.4,411.1-458.2c374.3-175.9,394.8-227,186.1-505.2c-90-120.7-198.4-310.9-329.3-580.9c-204.5-421.4-304.8-572.7-437.7-664.8c-151.4-106.4-282.3-73.6-599.3,149.3C754.8,773,601.4,779.1,396.9,511.2C198.5,245.3,100.3-2.2,100.3-247.7c-2-143.2,6.1-177.9,59.3-274.1C255.7-697.7,448-812.2,648.4-814.2c180-2,276.1,77.7,454.1,372.3C1262.1-176.1,1395-73.8,1585.2-73.8c216.8,0,294.5-106.4,362-490.9c47.1-265.9,90-425.4,147.3-535.9c96.1-190.2,36.8-245.4-343.6-321.1c-317-65.5-384.5-92-466.3-190.2c-53.2-61.4-55.2-75.7-47-220.9c8.2-112.5,24.5-182,63.4-257.7c161.6-319.1,548.2-499.1,799.7-376.4c128.9,61.4,171.8,151.4,200.5,405c38.9,351.8,63.4,370.2,360,270c292.5-98.2,564.5-233.2,658.6-327.3c67.5-67.5,81.8-96.1,81.8-161.6c0-88-20.5-112.5-241.3-302.7c-96.1-85.9-130.9-130.9-157.5-212.7c-110.4-331.4,190.2-654.5,580.9-627.9c161.6,12.3,286.4,69.5,353.9,163.6c73.6,104.3,65.4,327.3-22.5,615.7c-77.7,263.9-75.7,315,12.3,374.3c83.9,55.2,198.4,69.5,619.7,71.6c186.1,0,396.8,2,468.4,4.1c120.7,4.1,132.9,0,173.9-53.2c67.5-92.1,57.3-276.1-26.6-456.1c-36.8-77.7-90-171.8-118.6-208.6c-153.4-202.5-20.4-400.9,331.4-488.8c433.6-106.4,820.2,210.7,670.9,548.2c-47,106.4-212.7,292.5-333.4,376.4c-98.2,67.5-151.4,155.5-130.9,220.9c49.1,165.7,374.3,321.1,672.9,321.1c196.4,0,306.8-55.2,376.4-192.3c45-85.9,51.1-132.9,63.4-396.8c12.3-335.4,28.7-384.5,155.4-443.8c92-42.9,276.1-49.1,402.9-12.3c122.7,34.8,261.8,157.5,321.1,282.3c57.3,120.7,65.4,312.9,14.3,407c-69.6,132.9-145.2,171.8-447.9,233.2c-135,26.6-220.9,85.9-220.9,151.4c0,77.7,108.4,204.5,298.6,345.7c267.9,200.5,458.2,249.5,601.3,153.4c92-63.4,141.1-165.7,175.9-368.2c32.7-188.2,69.6-253.6,173.9-308.8c135-71.6,382.5,4.1,542,163.6c225,225,245.4,660.7,38.9,842.7c-124.8,110.4-274.1,128.8-484.8,63.4c-214.8-67.5-296.6-49.1-345.6,75.7c-53.2,141.1,10.2,458.2,124.8,615.6c71.6,100.2,153.4,147.3,257.7,147.3c67.5,0,92-16.4,200.5-128.9c69.5-71.6,182-202.5,249.5-294.5c214.8-282.3,386.6-364.1,636.1-306.8c190.2,43,278.2,83.9,374.3,169.8c157.5,141.1,177.9,368.2,69.6,742.5C9734,341.4,9670.6,441.6,9507,511.2c-116.6,51.1-372.3,43-707.7-20.4c-403-75.7-540-85.9-675-47.1C7930,500.9,7842,625.7,7797.1,908c-26.6,175.9-16.4,294.5,34.8,349.8c49.1,55.2,81.8,49.1,319.1-45c294.5-120.7,431.6-112.5,488.9,26.6c100.2,241.3-169.8,779.3-429.5,857c-124.8,36.8-192.3-4.1-468.4-290.4c-323.1-333.4-439.8-396.8-593.2-317c-87.9,45-343.6,327.3-402.9,439.8c-108.4,214.8-49.1,298.6,202.5,292.5c190.2-2,270,24.5,310.9,104.3c108.4,208.6-128.9,672.9-411.1,803.8c-118.7,57.3-206.6,61.4-310.9,18.4c-106.3-45-147.2-85.9-202.5-204.5c-61.4-128.9-63.4-294.5-8.2-488.8c22.5-77.7,34.8-163.6,28.6-190.2c-32.8-124.8-241.4-139.1-744.5-47c-186.2,32.7-380.5,65.5-433.7,71.6c-59.3,8.2-135,36.8-194.3,77.7c-255.7,171.8-259.8,405-6.1,591.1c247.5,184.1,169.7,464.3-173.9,621.8C4655.3,3646.7,4411.9,3667.2,4311.7,3620.2z M5037.8,1611.6c253.6-75.7,421.4-198.4,523.6-380.4c55.2-100.2,59.3-124.8,57.3-312.9c0-173.9-8.2-225-53.2-331.4c-124.8-296.6-286.4-462.2-525.6-537.9C4810.8-22.7,4577.6,8,4301.5,151.2c-419.3,218.9-703.6,605.4-668.8,912.2c28.6,259.8,333.4,488.8,760.9,572.7C4569.4,1670.9,4882.4,1658.6,5037.8,1611.6z M7111.9,312.8c216.8-190.2,87.9-789.5-198.4-920.4c-110.5-49.1-192.3-49.1-274.1,2c-124.8,75.7-186.1,286.4-147.3,499.1c26.6,151.3,77.7,255.7,173.9,351.8C6815.3,392.5,6991.2,419.1,7111.9,312.8z M3385.2-384.7c231.1-106.3,370.2-308.8,370.2-546.1c2-384.5-312.9-591.1-687.2-452c-237.3,90-384.5,253.6-427.5,482.7c-40.9,225,67.5,454.1,259.8,544.1C3014.9-300.8,3231.8-315.2,3385.2-384.7z"/></g></g>
</svg>